# xmcd CD database file
#
# Track frame offsets:
#	150
#	47103
#	58418
#	93833
#	159762
#
# Disc length: 2670 seconds
#
# Revision: 0
# Processed by: cddbd v1.5.1PL2 Copyright (c) Steve Scherf et al.
# Submitted via: CDex 1.51
#
DISCID=370a6c05
DTITLE=Martial Solal - Big Band
DYEAR=1995
DGENRE=Jazz
TTITLE0=Et si c'etait vrai - Part one
TTITLE1=Et si c'etait vrai - Part two
TTITLE2=Et si c'etait vrai - Part three
TTITLE3=Hommages
TTITLE4=Piccolo
EXTD=YEAR: 1995
EXTT0=
EXTT1=
EXTT2=
EXTT3=
EXTT4=
PLAYORDER=
